<svg xmlns="http://www.w3.org/2000/svg" xmlns:xlink="http://www.w3.org/1999/xlink" width="100" zoomAndPan="magnify" viewBox="0 0 75 74.999997" height="100" preserveAspectRatio="xMidYMid meet" version="1.2"><g id="2bb03979f4"><path style=" stroke:none;fill-rule:nonzero;fill:#50c348;fill-opacity:1;" d="M 47.628906 74.570312 C 44.949219 74.570312 43.484375 74.441406 42.769531 74.136719 C 41.460938 73.71875 40.484375 72.914062 39.539062 72.136719 C 39.335938 71.960938 39.125 71.789062 38.910156 71.625 L 32.320312 66.285156 C 30.492188 64.8125 29.4375 62.511719 29.5 60.140625 L 30.035156 38.136719 C 29.289062 37.855469 28.59375 37.453125 27.972656 36.957031 C 27.664062 36.675781 26.6875 35.902344 25.554688 35.003906 C 21.027344 31.414062 18.859375 29.617188 18.402344 28.832031 L 15.089844 24.113281 C 12.648438 20.648438 13.515625 15.757812 17.011719 13.222656 L 33.144531 1.511719 C 34.507812 0.527344 36.113281 0 37.777344 0 L 46.429688 0 C 49.171875 0 51.1875 1.734375 52.816406 3.125 L 56.117188 5.796875 C 56.628906 6.238281 57.125 6.621094 57.605469 6.992188 C 58.574219 7.75 59.488281 8.457031 60.316406 9.425781 C 61.433594 10.859375 62.015625 12.609375 61.976562 14.394531 L 60.699219 66.75 C 60.597656 71.039062 57.039062 74.535156 52.761719 74.535156 C 52.511719 74.519531 52.226562 74.519531 51.898438 74.519531 C 51.410156 74.519531 50.808594 74.527344 50.15625 74.535156 C 49.359375 74.542969 48.488281 74.558594 47.628906 74.558594 Z M 47.628906 74.570312 "/><path style=" stroke:none;fill-rule:nonzero;fill:#ffffff;fill-opacity:1;" d="M 46.179688 3.90625 C 48.3125 3.90625 50.007812 5.652344 49.960938 7.8125 L 48.683594 60.164062 C 48.628906 62.324219 46.847656 64.070312 44.714844 64.070312 L 37.171875 64.070312 C 35.035156 64.070312 33.34375 62.324219 33.390625 60.164062 L 34.328125 21.84375 L 27.097656 27.359375 C 25.4375 28.6875 22.804688 28.335938 21.609375 26.570312 C 21.609375 26.570312 18.277344 21.828125 18.277344 21.828125 C 17.058594 20.089844 17.484375 17.65625 19.238281 16.378906 L 35.382812 4.660156 C 36.058594 4.171875 36.863281 3.90625 37.699219 3.90625 Z M 46.179688 3.90625 "/></g></svg>