<svg xmlns="http://www.w3.org/2000/svg" xmlns:xlink="http://www.w3.org/1999/xlink" width="100" zoomAndPan="magnify" viewBox="0 0 75 74.999997" height="100" preserveAspectRatio="xMidYMid meet" version="1.2"><defs><clipPath id="875d941653"><path d="M 5.828125 0 L 68.828125 0 L 68.828125 75 L 5.828125 75 Z M 5.828125 0 "/></clipPath><clipPath id="cad1d8b93e"><path d="M 5.828125 0 L 63 0 L 63 68 L 5.828125 68 Z M 5.828125 0 "/></clipPath></defs><g id="1962284327"><g clip-rule="nonzero" clip-path="url(#875d941653)"><path style=" stroke:none;fill-rule:nonzero;fill:#50c348;fill-opacity:1;" d="M 68.886719 60.75 L 68.886719 67.109375 C 68.886719 71.199219 65.5625 74.53125 61.464844 74.53125 L 20.011719 74.53125 C 18.066406 74.53125 16.242188 73.761719 14.890625 72.46875 L 8.351562 65.929688 C 7.511719 65.136719 6.84375 64.164062 6.429688 63.035156 C 5.902344 61.589844 5.851562 59.992188 6.289062 58.425781 C 7.289062 54.839844 8.886719 51.375 11.046875 48.132812 C 13.835938 43.953125 18.542969 39.328125 25.378906 34.035156 L 20.539062 33.644531 C 18.921875 33.515625 17.445312 32.871094 16.277344 31.863281 L 16.257812 31.847656 L 15.609375 31.195312 L 9.664062 25.25 L 9.554688 25.144531 C 8.441406 24.144531 7.640625 22.800781 7.289062 21.242188 C 7.039062 20.15625 7.066406 18.976562 7.34375 17.828125 C 8.121094 14.679688 9.242188 11.992188 10.660156 9.847656 C 12.820312 6.589844 15.75 4.183594 19.605469 2.476562 C 23.277344 0.851562 28.042969 0.0664062 34.179688 0.0664062 C 40.3125 0.0664062 45.410156 0.808594 49.128906 2.335938 C 51.964844 3.5 54.398438 5.140625 56.375 7.226562 L 62.082031 12.941406 L 62.148438 12.996094 L 63.0625 13.921875 L 63.089844 13.945312 C 63.816406 14.710938 64.464844 15.539062 65.058594 16.417969 C 67.335938 19.792969 68.488281 23.609375 68.488281 27.773438 C 68.488281 32.179688 67.246094 36.242188 64.703125 40.203125 C 63.195312 42.542969 61.011719 44.949219 58.101562 47.472656 C 58.808594 47.820312 59.453125 48.273438 60.011719 48.808594 L 66.707031 55.507812 L 66.941406 55.738281 C 68.144531 57.054688 68.886719 58.820312 68.886719 60.75 Z M 68.886719 60.75 "/></g><g clip-rule="nonzero" clip-path="url(#cad1d8b93e)"><path style=" stroke:none;fill-rule:nonzero;fill:#50c348;fill-opacity:1;" d="M 13.414062 67.933594 C 10.304688 67.933594 7.503906 65.960938 6.429688 63.035156 C 5.902344 61.589844 5.851562 59.992188 6.289062 58.425781 C 7.289062 54.828125 8.886719 51.367188 11.054688 48.125 C 14.199219 43.425781 19.753906 38.148438 28.058594 31.996094 C 33.617188 27.867188 35.6875 25.753906 36.445312 24.707031 C 37.277344 23.5625 37.714844 22.53125 37.714844 21.730469 C 37.714844 21.019531 37.476562 20.46875 36.925781 19.949219 C 36.554688 19.59375 35.917969 19.125 34.625 19.125 C 33.253906 19.125 32.613281 19.601562 32.25 19.964844 C 32.058594 20.148438 31.582031 20.75 31.152344 22.339844 C 30.277344 25.574219 27.332031 27.824219 23.996094 27.824219 C 23.789062 27.824219 23.582031 27.824219 23.375 27.800781 L 13.949219 27.039062 C 10.691406 26.777344 8.023438 24.441406 7.296875 21.234375 C 7.046875 20.15625 7.074219 18.976562 7.355469 17.828125 C 8.128906 14.679688 9.25 11.992188 10.667969 9.847656 C 12.828125 6.589844 15.757812 4.175781 19.617188 2.46875 C 23.277344 0.859375 28.042969 0.0664062 34.179688 0.0664062 C 40.3125 0.0664062 45.417969 0.808594 49.136719 2.335938 C 53.054688 3.945312 56.195312 6.464844 58.460938 9.832031 C 60.738281 13.203125 61.894531 17.023438 61.894531 21.175781 C 61.894531 25.582031 60.65625 29.644531 58.109375 33.605469 C 55.699219 37.339844 51.59375 41.230469 45.542969 45.496094 C 44.890625 45.949219 44.296875 46.351562 43.769531 46.730469 L 54.875 46.730469 C 58.964844 46.730469 62.296875 50.0625 62.296875 54.152344 L 62.296875 60.511719 C 62.296875 64.601562 58.964844 67.933594 54.875 67.933594 Z M 13.414062 67.933594 "/></g><path style=" stroke:none;fill-rule:nonzero;fill:#ffffff;fill-opacity:1;" d="M 30.023438 34.652344 C 22.03125 40.574219 16.722656 45.578125 13.792969 49.964844 C 11.824219 52.917969 10.371094 56.058594 9.464844 59.308594 C 9.226562 60.15625 9.226562 61.070312 9.53125 61.90625 C 10.148438 63.585938 11.714844 64.632812 13.414062 64.632812 L 54.875 64.632812 C 57.152344 64.632812 59 62.789062 59 60.511719 L 59 54.152344 C 59 51.878906 57.152344 50.03125 54.875 50.03125 L 36.421875 50.03125 C 35.664062 50.03125 35.308594 49.089844 35.875 48.585938 C 36.304688 48.207031 36.71875 47.855469 37.097656 47.539062 C 38.1875 46.648438 40.394531 45.050781 43.652344 42.800781 C 49.359375 38.773438 53.167969 35.1875 55.347656 31.816406 C 57.539062 28.410156 58.601562 24.929688 58.601562 21.167969 C 58.601562 17.679688 57.636719 14.480469 55.742188 11.660156 C 53.835938 8.851562 51.199219 6.730469 47.890625 5.378906 C 44.578125 4.019531 40.089844 3.359375 34.1875 3.359375 C 28.28125 3.359375 24.191406 4.050781 20.953125 5.484375 C 17.6875 6.929688 15.21875 8.949219 13.414062 11.671875 C 12.203125 13.5 11.238281 15.835938 10.554688 18.613281 C 10.40625 19.230469 10.371094 19.882812 10.511719 20.511719 C 10.933594 22.363281 12.464844 23.609375 14.214844 23.75 L 23.65625 24.515625 C 23.773438 24.527344 23.878906 24.535156 23.996094 24.535156 C 25.839844 24.535156 27.480469 23.296875 27.96875 21.484375 C 28.4375 19.742188 29.097656 18.449219 29.929688 17.625 C 31.136719 16.4375 32.710938 15.835938 34.632812 15.835938 C 36.554688 15.835938 38.011719 16.417969 39.214844 17.574219 C 40.414062 18.71875 41.023438 20.121094 41.023438 21.738281 C 41.023438 23.265625 40.386719 24.914062 39.125 26.652344 C 37.804688 28.476562 34.828125 31.089844 30.03125 34.652344 Z M 30.023438 34.652344 "/></g></svg>