<svg xmlns="http://www.w3.org/2000/svg" xmlns:xlink="http://www.w3.org/1999/xlink" width="100" zoomAndPan="magnify" viewBox="0 0 75 74.999997" height="100" preserveAspectRatio="xMidYMid meet" version="1.2"><defs><clipPath id="c3e0e7afcd"><path d="M 7.5 0 L 68 0 L 68 75 L 7.5 75 Z M 7.5 0 "/></clipPath></defs><g id="b8cc704142"><g clip-rule="nonzero" clip-path="url(#c3e0e7afcd)"><path style=" stroke:none;fill-rule:nonzero;fill:#50c348;fill-opacity:1;" d="M 41.023438 74.789062 C 38.207031 74.789062 35.433594 74.449219 32.777344 73.785156 C 29.988281 73.101562 27.386719 72.035156 25.046875 70.605469 C 23.027344 69.289062 21.226562 67.800781 19.328125 66.226562 C 18.363281 65.425781 17.363281 64.601562 16.34375 63.800781 C 14.089844 62.042969 12.460938 60.492188 11.230469 58.90625 C 11.144531 58.800781 10.699219 58.195312 10.554688 57.996094 C 9.753906 56.855469 9.035156 55.59375 8.4375 54.238281 C 7.539062 52.308594 7.597656 50.011719 8.597656 47.9375 C 9.617188 45.828125 11.425781 44.332031 13.550781 43.824219 L 20.273438 42.0625 C 20.886719 41.902344 21.523438 41.820312 22.167969 41.820312 C 22.863281 41.820312 23.550781 41.917969 24.207031 42.105469 C 25.585938 42.402344 27.042969 43.617188 28.332031 44.691406 C 28.695312 44.996094 29.042969 45.28125 29.34375 45.519531 L 32.695312 48.226562 C 32.867188 48.242188 33.050781 48.25 33.230469 48.25 C 33.511719 48.25 33.785156 48.234375 34.050781 48.195312 C 33.027344 47.644531 32.105469 46.871094 31.296875 46.199219 C 31.082031 46.023438 30.878906 45.851562 30.683594 45.691406 L 24.996094 41.09375 C 23.242188 39.679688 22.226562 37.46875 22.289062 35.191406 C 22.308594 34.816406 22.308594 34.347656 22.316406 33.808594 C 22.332031 32.570312 22.347656 31.085938 22.558594 30.019531 C 21.476562 29.535156 20.578125 28.777344 19.699219 28.046875 C 19.335938 27.734375 18.972656 27.433594 18.597656 27.152344 L 13.378906 22.925781 C 13.277344 22.847656 12.832031 22.472656 12.710938 22.351562 C 11.984375 21.652344 11.425781 20.859375 11.039062 19.988281 C 9.648438 17.109375 10.496094 13.726562 13.574219 9.96875 C 18.453125 3.742188 26.355469 0.171875 35.242188 0.171875 C 38.058594 0.171875 40.832031 0.542969 43.496094 1.277344 C 46.742188 2.175781 49.488281 3.554688 51.898438 5.496094 C 52.472656 5.988281 53.464844 6.785156 54.621094 7.699219 C 57.574219 10.035156 61.242188 12.957031 62.328125 14.398438 C 65.386719 17.796875 66.945312 22.699219 66.558594 27.804688 C 66.21875 32.273438 64.363281 36.320312 61.4375 39.066406 C 63.722656 41.0625 65.421875 43.574219 66.398438 46.371094 C 68.117188 51.222656 67.398438 57.890625 64.667969 62.597656 C 60.371094 70.226562 51.527344 74.789062 41.03125 74.789062 Z M 41.023438 74.789062 "/></g><path style=" stroke:none;fill-rule:nonzero;fill:#ffffff;fill-opacity:1;" d="M 35.117188 3.925781 C 42.246094 3.902344 49.976562 6.609375 53.449219 13.175781 C 57.164062 20.488281 54.554688 29.738281 46.679688 32.929688 C 58.925781 37.566406 58.140625 53.503906 48.421875 60.246094 C 38.585938 67.203125 21.484375 66.25 13.972656 56.28125 C 12.703125 54.421875 10.730469 51.886719 11.949219 49.488281 C 12.4375 48.484375 13.347656 47.742188 14.421875 47.460938 C 15.078125 47.332031 21.636719 45.441406 22.113281 45.570312 C 23.421875 45.570312 24.648438 46.273438 25.296875 47.453125 C 25.8125 48.40625 26.53125 49.285156 27.445312 50.085938 C 30.054688 52.492188 35.191406 52.679688 38.246094 50.53125 C 40.667969 48.980469 41.492188 44.867188 39.933594 42.460938 C 37.753906 39.300781 33.222656 38.996094 29.65625 38.96875 C 27.605469 38.96875 25.972656 37.289062 26.023438 35.214844 L 26.113281 31.507812 C 26.167969 29.445312 27.875 27.765625 29.925781 27.765625 L 30.828125 27.765625 C 33.042969 27.734375 35.359375 27.578125 37.257812 26.539062 C 39.078125 25.511719 39.988281 24.074219 40.023438 21.796875 C 40.226562 18.191406 37.066406 16.3125 33.859375 16.3125 C 31.167969 16.269531 28.769531 17.75 27.519531 20.050781 C 26.703125 21.578125 24.964844 22.363281 23.332031 21.988281 C 23.332031 21.988281 16.945312 20.496094 16.945312 20.496094 C 14.632812 20.003906 13.4375 17.199219 14.585938 15.140625 C 15.132812 14.121094 15.757812 13.160156 16.457031 12.289062 C 20.859375 6.675781 28.082031 3.910156 35.109375 3.933594 Z M 35.117188 3.925781 "/></g></svg>